<svg xmlns="http://www.w3.org/2000/svg" width="512" height="512" viewBox="0 0 512 512">
  <!-- 背景渐变圆形 -->
  <defs>
    <!-- 主渐变背景 -->
    <linearGradient id="glassGradient" x1="0%" y1="0%" x2="100%" y2="100%">
      <stop offset="0%" style="stop-color:#4CAF50;stop-opacity:0.3" />
      <stop offset="100%" style="stop-color:#2196F3;stop-opacity:0.3" />
    </linearGradient>
    <!-- 高光渐变 -->
    <linearGradient id="highlightGradient" x1="0%" y1="0%" x2="100%" y2="100%">
      <stop offset="0%" style="stop-color:#FFFFFF;stop-opacity:0.8" />
      <stop offset="100%" style="stop-color:#FFFFFF;stop-opacity:0" />
    </linearGradient>
    <!-- 内发光滤镜 -->
    <filter id="innerGlow" x="-20%" y="-20%" width="140%" height="140%">
      <feGaussianBlur stdDeviation="10" result="blur" />
      <feComposite in="SourceGraphic" in2="blur" operator="over" />
    </filter>
  </defs>
  
  <!-- 主要玻璃圆形 -->
  <circle cx="256" cy="256" r="220" 
    fill="url(#glassGradient)" 
    stroke="rgba(255, 255, 255, 0.5)" 
    stroke-width="3" 
    filter="url(#innerGlow)"/>
  
  <!-- 高光区域 - 右上角 -->
  <ellipse cx="356" cy="156" rx="80" ry="60" 
    fill="url(#highlightGradient)" 
    opacity="0.7"/>
  
  <!-- 半透明边框 -->
  <circle cx="256" cy="256" r="210" 
    fill="none" 
    stroke="rgba(255, 255, 255, 0.3)" 
    stroke-width="2"/>
  
  <!-- 中央发射按钮 -->
  <circle cx="256" cy="256" r="60" 
    fill="rgba(255, 255, 255, 0.2)" 
    stroke="rgba(255, 255, 255, 0.7)" 
    stroke-width="2"/>
  
  <!-- 发射按钮高光 -->
  <ellipse cx="246" cy="246" rx="25" ry="20" 
    fill="rgba(255, 255, 255, 0.8)" 
    opacity="0.5"/>
  
  <!-- 放射状线条 - 代表启动器功能 -->
  <g stroke="rgba(255, 255, 255, 0.6)" stroke-width="2">
    <!-- 上 -->
    <line x1="256" y1="120" x2="256" y2="170" />
    <circle cx="256" cy="120" r="8" fill="rgba(255, 255, 255, 0.5)" />
    
    <!-- 右 -->
    <line x1="340" y1="256" x2="390" y2="256" />
    <circle cx="390" cy="256" r="8" fill="rgba(255, 255, 255, 0.5)" />
    
    <!-- 下 -->
    <line x1="256" y1="342" x2="256" y2="392" />
    <circle cx="256" cy="392" r="8" fill="rgba(255, 255, 255, 0.5)" />
    
    <!-- 左 -->
    <line x1="122" y1="256" x2="172" y2="256" />
    <circle cx="122" cy="256" r="8" fill="rgba(255, 255, 255, 0.5)" />
    
    <!-- 右上 -->
    <line x1="320" y1="120" x2="290" y2="160" />
    <circle cx="320" cy="120" r="6" fill="rgba(255, 255, 255, 0.5)" />
    
    <!-- 右下 -->
    <line x1="320" y1="392" x2="290" y2="352" />
    <circle cx="320" cy="392" r="6" fill="rgba(255, 255, 255, 0.5)" />
    
    <!-- 左下 -->
    <line x1="192" y1="392" x2="222" y2="352" />
    <circle cx="192" cy="392" r="6" fill="rgba(255, 255, 255, 0.5)" />
    
    <!-- 左上 -->
    <line x1="192" y1="120" x2="222" y2="160" />
    <circle cx="192" cy="120" r="6" fill="rgba(255, 255, 255, 0.5)" />
  </g>
</svg>